<svg xmlns="http://www.w3.org/2000/svg" xmlns:xlink="http://www.w3.org/1999/xlink" xmlns:lucid="lucid" width="1147" height="859"><g transform="translate(-257 -194)" lucid:page-tab-id="0_0"><path d="M1120 288a8 8 0 0 1 8-8h224a8 8 0 0 1 8 8v724a8 8 0 0 1-8 8h-224a8 8 0 0 1-8-8z" stroke="#000" stroke-opacity="0" stroke-width="2" fill="#635dff"/><path d="M1120 238.22a8 8 0 0 1 8-8h169.65a8 8 0 0 1 8 8V260a8 8 0 0 1-8 8H1128a8 8 0 0 1-8-8z" fill-opacity="0"/><use xlink:href="#a" transform="matrix(1,0,0,1,1128,238.220703125) translate(0 17.5478515625)"/><use xlink:href="#b" transform="matrix(1,0,0,1,1128,238.220703125) translate(80.8330078125 17.5478515625)"/><use xlink:href="#c" transform="matrix(1,0,0,1,1128,238.220703125) translate(117.2109375 17.5478515625)"/><path d="M408 333.25c17.67 0 32 17.9 32 40s-14.33 40-32 40h-96c-17.67 0-32-17.9-32-40s14.33-40 32-40z" stroke="#000" stroke-opacity="0" fill="#ff741d"/><use xlink:href="#d" transform="matrix(1,0,0,1,285,338.24999999995066) translate(41.9082568359375 41.089501953125)"/><path d="M753.6 315.52a10.67 10.67 0 0 1 12.8 0l67.2 50.4a6 6 0 0 1 0 9.6l-67.2 50.4a10.67 10.67 0 0 1-12.8 0l-67.2-50.4a6 6 0 0 1 0-9.6z" stroke="#fe5900" stroke-width="4" fill="#fff"/><use xlink:href="#e" transform="matrix(1,0,0,1,685,315.72179985853234) translate(30.039858398437495 50.96212890625)"/><use xlink:href="#f" transform="matrix(1,0,0,1,685,315.72179985853234) translate(39.145502929687495 71.216875)"/><path d="M480 321.25a8 8 0 0 1 8-8h144a8 8 0 0 1 8 8v104a8 8 0 0 1-8 8H488a8 8 0 0 1-8-8z" stroke="#000" stroke-opacity="0" stroke-width="2" fill="#ff8839"/><use xlink:href="#g" transform="matrix(1,0,0,1,485,318.24999999995066) translate(42.5539892578125 61.089501953125)"/><path d="M838.5 370.72h305.12" stroke="#333" fill="none"/><path d="M838.52 371.2h-.56l.05-.48-.04-.47h.56z" stroke="#333" stroke-width=".05" fill="#333"/><path d="M1158.38 370.72l-14.26 4.64v-9.27z" stroke="#333" fill="#333"/><use xlink:href="#h" transform="matrix(1,0,0,1,915.3192593893434,344.94250298353234) translate(0.0049999999999954525 17.4375)"/><use xlink:href="#i" transform="matrix(1,0,0,1,915.3192593893434,344.94250298353234) translate(59.480585937499995 17.4375)"/><use xlink:href="#j" transform="matrix(1,0,0,1,915.3192593893434,344.94250298353234) translate(86.0587109375 17.4375)"/><path d="M480 478.72a8 8 0 0 1 8-8h144a8 8 0 0 1 8 8v104a8 8 0 0 1-8 8H488a8 8 0 0 1-8-8z" stroke="#000" stroke-opacity="0" stroke-width="2" fill="#ff8839"/><use xlink:href="#k" transform="matrix(1,0,0,1,485,475.72179985853234) translate(53.1309228515625 61.089501953125)"/><path d="M480 636.2a8 8 0 0 1 8-8h144a8 8 0 0 1 8 8v104a8 8 0 0 1-8 8H488a8 8 0 0 1-8-8z" stroke="#000" stroke-opacity="0" stroke-width="2" fill="#ff8839"/><use xlink:href="#l" transform="matrix(1,0,0,1,485,633.193599717114) translate(26.602763671875003 61.089501953125)"/><path d="M1160 321.25a8 8 0 0 1 8-8h144a8 8 0 0 1 8 8v104a8 8 0 0 1-8 8h-144a8 8 0 0 1-8-8z" stroke="#000" stroke-opacity="0" stroke-width="2" fill="#ff8839"/><use xlink:href="#m" transform="matrix(1,0,0,1,1165,318.24999999995066) translate(36.5053564453125 61.089501953125)"/><path d="M811.83 394.85v115.87h331.8" stroke="#333" fill="none"/><path d="M812.3 394.86h-.95v-.15l.95-.7z" stroke="#333" stroke-width=".05" fill="#333"/><path d="M1158.38 510.72l-14.26 4.64v-9.27z" stroke="#333" fill="#333"/><use xlink:href="#h" transform="matrix(1,0,0,1,884.7644777467186,484.94250298353234) translate(0.0049999999999954525 17.4375)"/><use xlink:href="#i" transform="matrix(1,0,0,1,884.7644777467186,484.94250298353234) translate(59.480585937499995 17.4375)"/><use xlink:href="#n" transform="matrix(1,0,0,1,884.7644777467186,484.94250298353234) translate(86.0587109375 17.4375)"/><path d="M1160 458.72a8 8 0 0 1 8-8h144a8 8 0 0 1 8 8v104a8 8 0 0 1-8 8h-144a8 8 0 0 1-8-8z" stroke="#000" stroke-opacity="0" stroke-width="2" fill="#ff8839"/><use xlink:href="#o" transform="matrix(1,0,0,1,1165,455.72179985853234) translate(13.258989257812495 61.089501953125)"/><path d="M790.07 411.17v235.95h353.55" stroke="#333" fill="none"/><path d="M790.55 411.18h-.95v-.16l.95-.7z" stroke="#333" stroke-width=".05" fill="#333"/><path d="M1158.38 647.12l-14.26 4.63v-9.27z" stroke="#333" fill="#333"/><use xlink:href="#h" transform="matrix(1,0,0,1,873.5034421064004,621.3378371820045) translate(0.0049999999999954525 17.4375)"/><use xlink:href="#i" transform="matrix(1,0,0,1,873.5034421064004,621.3378371820045) translate(59.480585937499995 17.4375)"/><use xlink:href="#p" transform="matrix(1,0,0,1,873.5034421064004,621.3378371820045) translate(86.0587109375 17.4375)"/><path d="M1160 595.12a8 8 0 0 1 8-8h144a8 8 0 0 1 8 8v104a8 8 0 0 1-8 8h-144a8 8 0 0 1-8-8z" stroke="#000" stroke-opacity="0" stroke-width="2" fill="#ff8839"/><use xlink:href="#q" transform="matrix(1,0,0,1,1165,592.1171340570045) translate(8.023652343750001 61.089501953125)"/><path d="M760 430.56v356.6h383.62" stroke="#333" fill="none"/><path d="M760 430.06l.48-.03v.54h-.96v-.54z" stroke="#333" stroke-width=".05" fill="#333"/><path d="M1158.38 787.17l-14.26 4.64v-9.26z" stroke="#333" fill="#333"/><use xlink:href="#h" transform="matrix(1,0,0,1,912.6183917941312,761.393110907361) translate(0.0049999999999954525 17.4375)"/><use xlink:href="#i" transform="matrix(1,0,0,1,912.6183917941312,761.393110907361) translate(59.480585937499995 17.4375)"/><use xlink:href="#r" transform="matrix(1,0,0,1,912.6183917941312,761.393110907361) translate(86.0587109375 17.4375)"/><path d="M1160 735.17a8 8 0 0 1 8-8h144a8 8 0 0 1 8 8v104a8 8 0 0 1-8 8h-144a8 8 0 0 1-8-8z" stroke="#000" stroke-opacity="0" stroke-width="2" fill="#ff8839"/><use xlink:href="#s" transform="matrix(1,0,0,1,1165,732.172407782361) translate(29.152998046875 61.089501953125)"/><path d="M734.15 414.34v513.5h409.47" stroke="#333" fill="none"/><path d="M734.63 414.2v.15h-.95v-.87z" stroke="#333" stroke-width=".05" fill="#333"/><path d="M1158.38 927.84l-14.26 4.63v-9.27z" stroke="#333" fill="#333"/><use xlink:href="#h" transform="matrix(1,0,0,1,909.125772950335,902.055650011777) translate(0.0049999999999954525 17.4375)"/><use xlink:href="#i" transform="matrix(1,0,0,1,909.125772950335,902.055650011777) translate(59.480585937499995 17.4375)"/><use xlink:href="#t" transform="matrix(1,0,0,1,909.125772950335,902.055650011777) translate(86.0587109375 17.4375)"/><path d="M1160 875.84a8 8 0 0 1 8-8h144a8 8 0 0 1 8 8v104a8 8 0 0 1-8 8h-144a8 8 0 0 1-8-8z" stroke="#000" stroke-opacity="0" stroke-width="2" fill="#ff8839"/><use xlink:href="#u" transform="matrix(1,0,0,1,1165,872.834946886777) translate(29.128476562499998 61.089501953125)"/><path d="M640.5 688.2h8.5a12 12 0 0 0 12-12V375.32a4.6 4.6 0 0 1 4.6-4.6" stroke="#333" fill="none"/><path d="M640.5 688.67h-.5v-.95h.5z" stroke="#333" stroke-width=".05" fill="#333"/><path d="M680.37 370.72l-14.26 4.64v-9.27z" stroke="#333" fill="#333"/><path d="M560 433.75v20.6" stroke="#333" fill="none"/><path d="M560.48 433.76h-.96v-.5h.96z" stroke="#333" stroke-width=".05" fill="#333"/><path d="M560 469.1l-4.63-14.26h9.26z" stroke="#333" fill="#333"/><path d="M560 591.22v20.6" stroke="#333" fill="none"/><path d="M560.48 591.24h-.96v-.52h.96z" stroke="#333" stroke-width=".05" fill="#333"/><path d="M560 626.58l-4.63-14.27h9.26z" stroke="#333" fill="#333"/><path d="M440.5 373.25h23.12" stroke="#333" fill="none"/><path d="M440.5 373.73h-.53l.03-.48-.02-.48h.53z" stroke="#333" stroke-width=".05" fill="#333"/><path d="M478.38 373.25l-14.26 4.63v-9.26z" stroke="#333" fill="#333"/><defs><path d="M657 26c-323 0-524-166-541-416h195c15 169 171 246 346 246 202 0 356-106 356-265 5-203-294-238-475-293-239-73-380-191-380-389 0-252 224-419 512-419 294 0 499 171 508 396H992c-17-145-151-228-328-228-193 0-321 102-321 242 0 156 175 211 284 241l149 41c160 44 422 134 422 412 0 244-197 432-541 432" id="v"/><path d="M613 24c-304 0-509-231-509-576 0-350 205-580 509-580 216 0 392 114 453 309l-173 49c-33-115-133-197-280-197-223 0-326 196-326 419 0 220 103 415 326 415 150 0 252-85 285-206l172 49C1010-95 832 24 613 24" id="w"/><path d="M158 0v-1118h174v172h12c41-113 157-188 290-188 26 0 70 2 91 3v181c-11-2-60-10-108-10-161 0-279 109-279 260V0H158" id="x"/><path d="M471 26C259 26 90-98 90-318c0-256 228-303 435-329 202-27 287-16 287-108 0-139-79-219-234-219-161 0-248 86-283 164l-173-57c86-203 278-265 451-265 150 0 419 46 419 395V0H815v-152h-12C765-73 660 26 471 26zm31-159c199 0 310-134 310-271v-155c-30 35-226 55-295 64-131 17-246 59-246 186 0 116 97 176 231 176" id="y"/><path d="M158 418v-1536h174v179h20c37-59 106-193 324-193 279 0 474 222 474 576 0 356-194 580-473 580-213 0-288-135-325-197h-14v591H158zm492-555c209 0 317-186 317-421 0-232-105-413-317-413-206 0-314 166-314 413 0 249 111 421 314 421" id="z"/><path d="M158 0v-1118h180V0H158zm91-1301c-68 0-125-53-125-119s57-119 125-119c69 0 126 53 126 119s-57 119-126 119" id="A"/><path d="M338-670V0H158v-1118h173l1 207c72-158 192-221 342-221 226 0 378 139 378 422V0H872v-695c0-172-96-275-252-275-161 0-282 109-282 300" id="B"/><path d="M611 442c-248 0-391-105-460-228l146-94c47 65 117 165 314 165 178 0 307-82 307-266v-224h-17C863-141 792-18 576-18c-268 0-472-195-472-546 0-346 197-568 476-568 216 0 288 133 326 193h17v-179h175V29c0 289-215 413-487 413zm-5-620c203 0 314-146 314-390 0-237-108-403-314-403-213 0-319 180-319 403 0 230 109 390 319 390" id="C"/><g id="a"><use transform="matrix(0.0087890625,0,0,0.0087890625,0,0)" xlink:href="#v"/><use transform="matrix(0.0087890625,0,0,0.0087890625,11.548828125,0)" xlink:href="#w"/><use transform="matrix(0.0087890625,0,0,0.0087890625,21.83203125,0)" xlink:href="#x"/><use transform="matrix(0.0087890625,0,0,0.0087890625,28.6083984375,0)" xlink:href="#y"/><use transform="matrix(0.0087890625,0,0,0.0087890625,38.7158203125,0)" xlink:href="#z"/><use transform="matrix(0.0087890625,0,0,0.0087890625,49.7373046875,0)" xlink:href="#A"/><use transform="matrix(0.0087890625,0,0,0.0087890625,54.0966796875,0)" xlink:href="#B"/><use transform="matrix(0.0087890625,0,0,0.0087890625,64.7314453125,0)" xlink:href="#C"/></g><path d="M577 24c-279 0-473-224-473-580 0-354 195-576 474-576 218 0 287 134 324 193h14v-551h180V0H922v-173h-20C865-111 790 24 577 24zm27-161c203 0 314-172 314-421 0-247-108-413-314-413-212 0-317 181-317 413 0 235 108 421 317 421" id="D"/><path d="M613 24c-304 0-509-231-509-576 0-350 205-580 509-580 305 0 511 230 511 580 0 345-206 576-511 576zm0-161c226 0 329-195 329-415 0-222-103-419-329-419-223 0-326 196-326 419 0 220 103 415 326 415" id="E"/><path d="M538 24C308 24 148-78 108-271l171-41c32 123 123 178 257 178 156 0 256-77 256-169 0-77-54-128-164-154l-186-44c-203-48-300-148-300-305 0-192 176-326 414-326 230 0 351 112 402 269l-163 42c-31-80-94-158-238-158-133 0-233 69-233 162 0 83 57 129 188 160l169 40c203 48 298 149 298 302 0 196-179 339-441 339" id="F"/><g id="b"><use transform="matrix(0.0087890625,0,0,0.0087890625,0,0)" xlink:href="#D"/><use transform="matrix(0.0087890625,0,0,0.0087890625,11.021484375,0)" xlink:href="#E"/><use transform="matrix(0.0087890625,0,0,0.0087890625,21.814453125,0)" xlink:href="#F"/></g><g id="c"><use transform="matrix(0.0087890625,0,0,0.0087890625,0,0)" xlink:href="#D"/><use transform="matrix(0.0087890625,0,0,0.0087890625,11.021484375,0)" xlink:href="#y"/><use transform="matrix(0.0087890625,0,0,0.0087890625,21.12890625,0)" xlink:href="#D"/><use transform="matrix(0.0087890625,0,0,0.0087890625,32.150390625,0)" xlink:href="#E"/><use transform="matrix(0.0087890625,0,0,0.0087890625,42.943359375,0)" xlink:href="#F"/></g><path fill="#fff" d="M698 20c-339 0-559-226-559-600 0-470 305-930 790-930 306 0 529 181 531 489h-190c-8-202-157-313-348-313-373 0-599 380-599 749 0 281 158 429 382 429 202 0 399-111 474-313h191C1267-166 997 20 698 20" id="G"/><path fill="#fff" d="M528 24C258 24 94-156 94-433c0-355 229-699 603-699 270 0 436 178 436 458 0 359-234 698-605 698zm4-161c275 0 420-287 420-533 0-170-77-301-260-301-271 0-418 288-418 536 0 168 77 298 258 298" id="H"/><path fill="#fff" d="M65 0l186-1118h175l-31 195c80-148 212-215 337-215 153 0 236 96 255 228 75-143 223-228 382-228 199 0 341 131 298 390L1543 0h-181l126-756c27-162-65-218-177-218-160 0-274 111-297 250L894 0H714l128-773c21-127-57-201-174-201-136 0-277 97-307 277L245 0H65" id="I"/><path fill="#fff" d="M535 24C259 24 94-144 94-427c0-392 272-715 610-715 216 0 356 119 356 305 0 244-237 344-790 350-18 199 49 349 276 352 142 0 260-66 317-173l167 47C947-85 756 24 535 24zM294-623c447-4 586-57 586-218 0-85-78-141-194-141-220 0-342 177-392 359" id="J"/><path fill="#fff" d="M340 418l17-105h118c73 0 101-17 109-65s-11-66-87-66h-82l48-162C232-7 94-179 94-433c0-354 228-699 603-699 222 0 381 120 410 314l-176 39c-14-114-95-192-238-192-272 0-419 288-419 536 0 167 76 298 258 298 155 0 277-90 329-211l166 58C940-105 767 10 566 23l-10 63c126 5 179 52 162 159-19 119-95 173-259 173H340" id="K"/><g id="d"><use transform="matrix(0.008173828125000001,0,0,0.008173828125000001,0,0)" xlink:href="#G"/><use transform="matrix(0.008173828125000001,0,0,0.008173828125000001,12.219873046875001,0)" xlink:href="#H"/><use transform="matrix(0.008173828125000001,0,0,0.008173828125000001,22.265507812500008,0)" xlink:href="#I"/><use transform="matrix(0.008173828125000001,0,0,0.008173828125000001,36.92935546875,0)" xlink:href="#J"/><use transform="matrix(0.008173828125000001,0,0,0.008173828125000001,46.56629882812501,0)" xlink:href="#K"/><use transform="matrix(0.008173828125000001,0,0,0.008173828125000001,56.1378515625,0)" xlink:href="#H"/></g><path fill="#333" d="M370-1490V0H180v-1490h190" id="L"/><path fill="#333" d="M338-670V0H158v-1118h173l1 207c72-158 192-221 342-221 226 0 378 139 378 422V0H872v-695c0-172-96-275-252-275-161 0-282 109-282 300" id="M"/><path fill="#333" d="M678-1118v154H420V0H240v-964H20v-154h220v-149c0-194 155-293 318-293 85 0 141 18 168 30l-50 154c-19-6-47-17-97-17-111 0-159 58-159 166v109h258" id="N"/><path fill="#333" d="M613 24c-304 0-509-231-509-576 0-350 205-580 509-580 305 0 511 230 511 580 0 345-206 576-511 576zm0-161c226 0 329-195 329-415 0-222-103-419-329-419-223 0-326 196-326 419 0 220 103 415 326 415" id="O"/><path fill="#333" d="M158 0v-1118h174v172h12c41-113 157-188 290-188 26 0 70 2 91 3v181c-11-2-60-10-108-10-161 0-279 109-279 260V0H158" id="P"/><path fill="#333" d="M158 0v-1118h175l1 205c55-151 181-225 313-225 147 0 245 90 285 228 53-141 190-228 352-228 194 0 352 125 352 384V0h-181v-749c0-161-105-225-225-225-151 0-243 103-243 244V0H807v-767c0-124-93-207-219-207-131 0-250 92-250 270V0H158" id="Q"/><path fill="#333" d="M471 26C259 26 90-98 90-318c0-256 228-303 435-329 202-27 287-16 287-108 0-139-79-219-234-219-161 0-248 86-283 164l-173-57c86-203 278-265 451-265 150 0 419 46 419 395V0H815v-152h-12C765-73 660 26 471 26zm31-159c199 0 310-134 310-271v-155c-30 35-226 55-295 64-131 17-246 59-246 186 0 116 97 176 231 176" id="R"/><path fill="#333" d="M502 418V313h118c73 0 98-17 98-66s-25-65-98-65h-82l21-161C285-4 104-228 104-552c0-350 205-580 509-580 216 0 392 114 453 309l-173 49c-33-115-133-197-280-197-223 0-326 196-326 419 0 220 103 415 326 415 150 0 252-85 285-206l172 49C1015-110 859 5 663 22v64c130 5 189 54 189 162 0 118-71 170-231 170H502" id="S"/><path fill="#333" d="M471 26C259 26 90-98 90-318c0-256 228-303 435-329 202-27 287-16 287-108 0-139-79-219-234-219-161 0-248 86-283 164l-173-57c86-203 278-265 451-265 150 0 419 46 419 395V0H815v-152h-12C765-73 660 26 471 26zm31-159c199 0 310-134 310-271v-155c-30 35-226 55-295 64-131 17-246 59-246 186 0 116 97 176 231 176zm187-1180c-99 0-192-83-243-83-35 0-51 40-53 79H267c4-120 55-208 162-208 104 0 174 85 241 85 33 0 49-23 56-81h123c-4 126-62 208-160 208" id="T"/><g id="e"><use transform="matrix(0.008173828125000001,0,0,0.008173828125000001,0,0)" xlink:href="#L"/><use transform="matrix(0.008173828125000001,0,0,0.008173828125000001,4.495605468750001,0)" xlink:href="#M"/><use transform="matrix(0.008173828125000001,0,0,0.008173828125000001,14.3859375,0)" xlink:href="#N"/><use transform="matrix(0.008173828125000001,0,0,0.008173828125000001,20.09126953125,0)" xlink:href="#O"/><use transform="matrix(0.008173828125000001,0,0,0.008173828125000001,30.12873046875,0)" xlink:href="#P"/><use transform="matrix(0.008173828125000001,0,0,0.008173828125000001,36.692314453125,0)" xlink:href="#Q"/><use transform="matrix(0.008173828125000001,0,0,0.008173828125000001,51.356162109375006,0)" xlink:href="#R"/><use transform="matrix(0.008173828125000001,0,0,0.008173828125000001,60.756064453125006,0)" xlink:href="#S"/><use transform="matrix(0.008173828125000001,0,0,0.008173828125000001,70.48291992187501,0)" xlink:href="#T"/><use transform="matrix(0.008173828125000001,0,0,0.008173828125000001,79.88282226562501,0)" xlink:href="#O"/></g><path fill="#333" d="M577 24c-279 0-473-224-473-580 0-354 195-576 474-576 218 0 287 134 324 193h14v-551h180V0H922v-173h-20C865-111 790 24 577 24zm27-161c203 0 314-172 314-421 0-247-108-413-314-413-212 0-317 181-317 413 0 235 108 421 317 421" id="U"/><path fill="#333" d="M628 24c-324 0-524-230-524-574 0-343 198-582 503-582 237 0 487 146 487 559v75H286c9 234 145 362 343 362 132 0 231-58 273-172l174 48C1024-91 857 24 628 24zM287-650h624c-17-190-120-322-304-322-192 0-309 151-320 322" id="V"/><path fill="#333" d="M538 24C308 24 148-78 108-271l171-41c32 123 123 178 257 178 156 0 256-77 256-169 0-77-54-128-164-154l-186-44c-203-48-300-148-300-305 0-192 176-326 414-326 230 0 351 112 402 269l-163 42c-31-80-94-158-238-158-133 0-233 69-233 162 0 83 57 129 188 160l169 40c203 48 298 149 298 302 0 196-179 339-441 339" id="W"/><path fill="#333" d="M157-1118h181V80c1 225-123 350-364 338V252c126 9 184-48 183-172v-1198zm91-183c-68 0-125-53-125-119s57-119 125-119c69 0 126 53 126 119s-57 119-126 119" id="X"/><g id="f"><use transform="matrix(0.008173828125000001,0,0,0.008173828125000001,0,0)" xlink:href="#U"/><use transform="matrix(0.008173828125000001,0,0,0.008173828125000001,10.249980468750001,0)" xlink:href="#V"/><use transform="matrix(0.008173828125000001,0,0,0.008173828125000001,20.009531250000002,0)" xlink:href="#W"/><use transform="matrix(0.008173828125000001,0,0,0.008173828125000001,28.845439453125003,0)" xlink:href="#V"/><use transform="matrix(0.008173828125000001,0,0,0.008173828125000001,38.604990234375,0)" xlink:href="#X"/><use transform="matrix(0.008173828125000001,0,0,0.008173828125000001,42.659208984375,0)" xlink:href="#R"/><use transform="matrix(0.008173828125000001,0,0,0.008173828125000001,52.059111328125,0)" xlink:href="#U"/><use transform="matrix(0.008173828125000001,0,0,0.008173828125000001,62.309091796875,0)" xlink:href="#R"/></g><path fill="#fff" d="M87 0l247-1490h510c351 0 476 196 432 460-33 197-146 351-346 417L1163 0H943L728-579c-116 2-237 0-355 1L277 0H87zm314-747h311c238 0 346-110 375-283 31-185-52-293-281-293H496" id="Y"/><path fill="#fff" d="M456 442C197 442 73 327 25 209l155-84c33 60 86 160 280 160 184 0 332-89 363-272l37-218-16 4C793-134 707-18 498-18 260-18 96-170 96-443c0-341 216-689 568-689 222 0 274 139 301 198l21-5 30-179h175L999 35c-48 288-275 407-543 407zm75-620c274 0 401-267 401-512 0-170-80-281-247-281-260 0-408 269-408 518 0 167 83 275 254 275" id="Z"/><path fill="#fff" d="M66 0l185-1118h180L246 0H66zm307-1301c-71 0-117-55-106-119s74-119 145-119c65 0 117 50 106 118s-78 120-145 120" id="aa"/><path fill="#fff" d="M451 24C217 22 71-78 61-277l174-29c11 123 90 172 219 172 161 0 280-83 297-181 11-71-30-117-135-143l-179-44c-195-48-280-153-253-316 31-186 223-314 455-314 233 4 337 107 366 275l-165 30c-18-80-65-152-204-152-138 0-256 75-272 174-13 77 32 118 158 149l162 40c195 48 278 154 252 313C904-113 708 24 451 24" id="ab"/><path fill="#fff" d="M691-1118l-25 154H437L325-290c-17 103 16 144 108 144 23 0 63-6 94-12L538-6c-36 12-87 20-136 20-196 0-290-109-260-290l114-688H88l25-154h169l44-266h180l-44 266h229" id="ac"/><path fill="#fff" d="M66 0l185-1118h174l-28 172h12c78-136 219-209 411-185l-30 181c-211-47-398 67-428 250L246 0H66" id="ad"/><g id="g"><use transform="matrix(0.008173828125000001,0,0,0.008173828125000001,0,0)" xlink:href="#Y"/><use transform="matrix(0.008173828125000001,0,0,0.008173828125000001,10.527890625000001,0)" xlink:href="#J"/><use transform="matrix(0.008173828125000001,0,0,0.008173828125000001,20.164833984375,0)" xlink:href="#Z"/><use transform="matrix(0.008173828125000001,0,0,0.008173828125000001,30.431162109375002,0)" xlink:href="#aa"/><use transform="matrix(0.008173828125000001,0,0,0.008173828125000001,34.4935546875,0)" xlink:href="#ab"/><use transform="matrix(0.008173828125000001,0,0,0.008173828125000001,43.3212890625,0)" xlink:href="#ac"/><use transform="matrix(0.008173828125000001,0,0,0.008173828125000001,48.8141015625,0)" xlink:href="#ad"/><use transform="matrix(0.008173828125000001,0,0,0.008173828125000001,54.84638671875,0)" xlink:href="#H"/></g><path fill="#333" d="M645 0H180v-1490h484c435 0 692 280 692 742 0 466-257 748-711 748zM370-168h263c363 0 539-218 539-580 0-358-176-574-521-574H370v1154" id="ae"/><g id="h"><use transform="matrix(0.0087890625,0,0,0.0087890625,0,0)" xlink:href="#ae"/><use transform="matrix(0.0087890625,0,0,0.0087890625,12.990234375,0)" xlink:href="#R"/><use transform="matrix(0.0087890625,0,0,0.0087890625,23.09765625,0)" xlink:href="#U"/><use transform="matrix(0.0087890625,0,0,0.0087890625,34.119140625,0)" xlink:href="#O"/><use transform="matrix(0.0087890625,0,0,0.0087890625,44.912109375,0)" xlink:href="#W"/></g><g id="i"><use transform="matrix(0.0087890625,0,0,0.0087890625,0,0)" xlink:href="#U"/><use transform="matrix(0.0087890625,0,0,0.0087890625,11.021484375,0)" xlink:href="#V"/></g><path fill="#333" d="M158 418v-1536h174v179h20c37-59 106-193 324-193 279 0 474 222 474 576 0 356-194 580-473 580-213 0-288-135-325-197h-14v591H158zm492-555c209 0 317-186 317-421 0-232-105-413-317-413-206 0-314 166-314 413 0 249 111 421 314 421" id="af"/><path fill="#333" d="M537 14c-226 0-379-139-379-422v-710h180v695c0 172 97 275 253 275 160 0 281-109 281-300v-670h181V0H879v-209C806-46 684 14 537 14" id="ag"/><g id="j"><use transform="matrix(0.0087890625,0,0,0.0087890625,0,0)" xlink:href="#af"/><use transform="matrix(0.0087890625,0,0,0.0087890625,11.021484375,0)" xlink:href="#P"/><use transform="matrix(0.0087890625,0,0,0.0087890625,17.4990234375,0)" xlink:href="#O"/><use transform="matrix(0.0087890625,0,0,0.0087890625,28.2919921875,0)" xlink:href="#U"/><use transform="matrix(0.0087890625,0,0,0.0087890625,39.3134765625,0)" xlink:href="#ag"/><use transform="matrix(0.0087890625,0,0,0.0087890625,49.95703125,0)" xlink:href="#S"/><use transform="matrix(0.0087890625,0,0,0.0087890625,60.416015625,0)" xlink:href="#T"/><use transform="matrix(0.0087890625,0,0,0.0087890625,70.5234375,0)" xlink:href="#O"/></g><path fill="#fff" d="M87 0l247-1490h190L304-167h690L967 0H87" id="ah"/><path fill="#fff" d="M356-664L245 0H65l186-1118h173l-32 197c96-152 219-211 366-211 232 0 366 145 319 428L960 0H779l117-701c29-174-48-269-198-269-165 0-310 115-342 306" id="ai"/><g id="k"><use transform="matrix(0.008173828125000001,0,0,0.008173828125000001,0,0)" xlink:href="#ah"/><use transform="matrix(0.008173828125000001,0,0,0.008173828125000001,9.465292968750001,0)" xlink:href="#H"/><use transform="matrix(0.008173828125000001,0,0,0.008173828125000001,19.510927734375002,0)" xlink:href="#Z"/><use transform="matrix(0.008173828125000001,0,0,0.008173828125000001,29.777255859375003,0)" xlink:href="#aa"/><use transform="matrix(0.008173828125000001,0,0,0.008173828125000001,33.8396484375,0)" xlink:href="#ai"/></g><path fill="#fff" d="M-41 0l788-1490h220L1268 0h-192l-80-416H383L169 0H-41zm509-582h497c-56-293-77-375-126-756-162 359-224 468-371 756" id="aj"/><path fill="#fff" d="M443 14C219 14 87-123 134-408l117-710h180L317-423c-28 171 49 275 206 275s300-105 332-300l110-670h181L961 0H787l35-209C722-47 590 14 443 14" id="ak"/><path fill="#fff" d="M33 0l23-134 752-806 2-11H211l27-167h839l-24 143-732 797-2 11h620L912 0H33" id="al"/><path fill="#fff" d="M481 24C202 24 45-202 104-557s293-575 571-575c216 0 263 132 291 193h15l29-179h181L1006 0H831l28-173h-21C788-107 693 24 481 24zm56-161c204 0 342-174 383-422s-41-412-245-412c-215 0-350 183-388 412-39 235 39 422 250 422" id="am"/><path fill="#fff" d="M481 24C202 24 45-202 104-557s293-575 571-575c216 0 263 132 291 193h15l29-179h181L1006 0H831l28-173h-21C788-107 693 24 481 24zm56-161c204 0 342-174 383-422s-41-412-245-412c-215 0-350 183-388 412-39 235 39 422 250 422zm347-1176c-99 0-179-83-229-83-37 0-59 42-67 79H462c25-123 92-208 197-208 104 0 160 85 227 85 34 0 53-25 69-81h123c-25 129-98 208-194 208" id="an"/><g id="l"><use transform="matrix(0.008173828125000001,0,0,0.008173828125000001,0,0)" xlink:href="#aj"/><use transform="matrix(0.008173828125000001,0,0,0.008173828125000001,11.549619140625001,0)" xlink:href="#ak"/><use transform="matrix(0.008173828125000001,0,0,0.008173828125000001,21.456298828125,0)" xlink:href="#ac"/><use transform="matrix(0.008173828125000001,0,0,0.008173828125000001,26.785634765624998,0)" xlink:href="#H"/><use transform="matrix(0.008173828125000001,0,0,0.008173828125000001,36.83126953125,0)" xlink:href="#ad"/><use transform="matrix(0.008173828125000001,0,0,0.008173828125000001,43.40302734375,0)" xlink:href="#aa"/><use transform="matrix(0.008173828125000001,0,0,0.008173828125000001,47.465419921875,0)" xlink:href="#al"/><use transform="matrix(0.008173828125000001,0,0,0.008173828125000001,56.4648046875,0)" xlink:href="#am"/><use transform="matrix(0.008173828125000001,0,0,0.008173828125000001,66.739306640625,0)" xlink:href="#K"/><use transform="matrix(0.008173828125000001,0,0,0.008173828125000001,76.4743359375,0)" xlink:href="#an"/><use transform="matrix(0.008173828125000001,0,0,0.008173828125000001,86.748837890625,0)" xlink:href="#H"/></g><path fill="#fff" d="M87 0l247-1490h510c346 0 473 206 430 472s-238 479-586 479H366L277 0H87zm307-706h312c241 0 351-138 379-311s-39-306-279-306H496" id="ao"/><path fill="#fff" d="M492 24C248 24 94-147 94-425c0-352 212-707 569-707 222 0 274 136 303 198h12l92-556h181L1004 0H829l30-173h-19C792-103 700 24 492 24zm32-161c268 0 407-295 407-549 0-175-80-285-247-285-266 0-408 283-408 536 0 174 79 298 248 298" id="ap"/><g id="m"><use transform="matrix(0.008173828125000001,0,0,0.008173828125000001,0,0)" xlink:href="#ao"/><use transform="matrix(0.008173828125000001,0,0,0.008173828125000001,10.691367187500001,0)" xlink:href="#ad"/><use transform="matrix(0.008173828125000001,0,0,0.008173828125000001,16.72365234375,0)" xlink:href="#H"/><use transform="matrix(0.008173828125000001,0,0,0.008173828125000001,26.769287109375,0)" xlink:href="#ap"/><use transform="matrix(0.008173828125000001,0,0,0.008173828125000001,37.02744140625,0)" xlink:href="#ak"/><use transform="matrix(0.008173828125000001,0,0,0.008173828125000001,46.93412109375,0)" xlink:href="#K"/><use transform="matrix(0.008173828125000001,0,0,0.008173828125000001,56.669150390625006,0)" xlink:href="#an"/><use transform="matrix(0.008173828125000001,0,0,0.008173828125000001,66.94365234375,0)" xlink:href="#H"/></g><path fill="#333" d="M613 24c-304 0-509-231-509-576 0-350 205-580 509-580 216 0 392 114 453 309l-173 49c-33-115-133-197-280-197-223 0-326 196-326 419 0 220 103 415 326 415 150 0 252-85 285-206l172 49C1010-95 832 24 613 24" id="aq"/><path fill="#333" d="M598-1118v154H368v674c0 100 37 144 132 144 23 0 62-6 92-12L629-6c-37 13-88 20-134 20-193 0-307-107-307-290v-688H20v-154h168v-266h180v266h230" id="ar"/><g id="n"><use transform="matrix(0.0087890625,0,0,0.0087890625,0,0)" xlink:href="#af"/><use transform="matrix(0.0087890625,0,0,0.0087890625,11.021484375,0)" xlink:href="#P"/><use transform="matrix(0.0087890625,0,0,0.0087890625,17.4990234375,0)" xlink:href="#O"/><use transform="matrix(0.0087890625,0,0,0.0087890625,28.2919921875,0)" xlink:href="#aq"/><use transform="matrix(0.0087890625,0,0,0.0087890625,38.5751953125,0)" xlink:href="#V"/><use transform="matrix(0.0087890625,0,0,0.0087890625,49.0693359375,0)" xlink:href="#W"/><use transform="matrix(0.0087890625,0,0,0.0087890625,58.5703125,0)" xlink:href="#W"/><use transform="matrix(0.0087890625,0,0,0.0087890625,68.0712890625,0)" xlink:href="#R"/><use transform="matrix(0.0087890625,0,0,0.0087890625,78.1787109375,0)" xlink:href="#Q"/><use transform="matrix(0.0087890625,0,0,0.0087890625,93.9462890625,0)" xlink:href="#V"/><use transform="matrix(0.0087890625,0,0,0.0087890625,104.4404296875,0)" xlink:href="#M"/><use transform="matrix(0.0087890625,0,0,0.0087890625,115.0751953125,0)" xlink:href="#ar"/><use transform="matrix(0.0087890625,0,0,0.0087890625,120.7880859375,0)" xlink:href="#O"/></g><path fill="#fff" d="M528 24C258 24 94-156 94-433c0-354 228-699 603-699 222 0 381 120 410 314l-176 39c-14-114-95-192-238-192-272 0-419 288-419 536 0 167 76 298 258 298 155 0 277-90 329-211l166 58C935-93 745 24 528 24" id="as"/><g id="o"><use transform="matrix(0.008173828125000001,0,0,0.008173828125000001,0,0)" xlink:href="#ao"/><use transform="matrix(0.008173828125000001,0,0,0.008173828125000001,10.691367187500001,0)" xlink:href="#ad"/><use transform="matrix(0.008173828125000001,0,0,0.008173828125000001,16.72365234375,0)" xlink:href="#H"/><use transform="matrix(0.008173828125000001,0,0,0.008173828125000001,26.769287109375,0)" xlink:href="#as"/><use transform="matrix(0.008173828125000001,0,0,0.008173828125000001,36.340839843750004,0)" xlink:href="#J"/><use transform="matrix(0.008173828125000001,0,0,0.008173828125000001,45.97778320312501,0)" xlink:href="#ab"/><use transform="matrix(0.008173828125000001,0,0,0.008173828125000001,54.805517578125006,0)" xlink:href="#ab"/><use transform="matrix(0.008173828125000001,0,0,0.008173828125000001,63.633251953125004,0)" xlink:href="#am"/><use transform="matrix(0.008173828125000001,0,0,0.008173828125000001,73.90775390625001,0)" xlink:href="#I"/><use transform="matrix(0.008173828125000001,0,0,0.008173828125000001,88.5716015625,0)" xlink:href="#J"/><use transform="matrix(0.008173828125000001,0,0,0.008173828125000001,98.208544921875,0)" xlink:href="#ai"/><use transform="matrix(0.008173828125000001,0,0,0.008173828125000001,108.10705078125001,0)" xlink:href="#ac"/><use transform="matrix(0.008173828125000001,0,0,0.008173828125000001,113.43638671875001,0)" xlink:href="#H"/></g><path fill="#333" d="M158 0v-1118h180V0H158zm91-1301c-68 0-125-53-125-119s57-119 125-119c69 0 126 53 126 119s-57 119-126 119" id="at"/><path fill="#333" d="M338-1490V0H158v-1490h180" id="au"/><path fill="#333" d="M126 0v-134l627-806v-11H146v-167h839v143L376-178v11h629V0H126" id="av"/><g id="p"><use transform="matrix(0.0087890625,0,0,0.0087890625,0,0)" xlink:href="#aq"/><use transform="matrix(0.0087890625,0,0,0.0087890625,10.283203125,0)" xlink:href="#O"/><use transform="matrix(0.0087890625,0,0,0.0087890625,21.076171875,0)" xlink:href="#Q"/><use transform="matrix(0.0087890625,0,0,0.0087890625,36.84375,0)" xlink:href="#V"/><use transform="matrix(0.0087890625,0,0,0.0087890625,47.337890625,0)" xlink:href="#P"/><use transform="matrix(0.0087890625,0,0,0.0087890625,53.8154296875,0)" xlink:href="#aq"/><use transform="matrix(0.0087890625,0,0,0.0087890625,64.0986328125,0)" xlink:href="#at"/><use transform="matrix(0.0087890625,0,0,0.0087890625,68.4580078125,0)" xlink:href="#R"/><use transform="matrix(0.0087890625,0,0,0.0087890625,78.5654296875,0)" xlink:href="#au"/><use transform="matrix(0.0087890625,0,0,0.0087890625,82.9248046875,0)" xlink:href="#at"/><use transform="matrix(0.0087890625,0,0,0.0087890625,87.2841796875,0)" xlink:href="#av"/><use transform="matrix(0.0087890625,0,0,0.0087890625,97.224609375,0)" xlink:href="#R"/><use transform="matrix(0.0087890625,0,0,0.0087890625,107.33203125,0)" xlink:href="#S"/><use transform="matrix(0.0087890625,0,0,0.0087890625,117.791015625,0)" xlink:href="#T"/><use transform="matrix(0.0087890625,0,0,0.0087890625,127.8984375,0)" xlink:href="#O"/></g><path fill="#fff" d="M492-1490L245 0H65l247-1490h180" id="aw"/><g id="q"><use transform="matrix(0.008173828125000001,0,0,0.008173828125000001,0,0)" xlink:href="#G"/><use transform="matrix(0.008173828125000001,0,0,0.008173828125000001,12.219873046875001,0)" xlink:href="#H"/><use transform="matrix(0.008173828125000001,0,0,0.008173828125000001,22.265507812500008,0)" xlink:href="#I"/><use transform="matrix(0.008173828125000001,0,0,0.008173828125000001,36.92935546875,0)" xlink:href="#J"/><use transform="matrix(0.008173828125000001,0,0,0.008173828125000001,46.56629882812501,0)" xlink:href="#ad"/><use transform="matrix(0.008173828125000001,0,0,0.008173828125000001,52.598583984375004,0)" xlink:href="#as"/><use transform="matrix(0.008173828125000001,0,0,0.008173828125000001,62.17013671875,0)" xlink:href="#aa"/><use transform="matrix(0.008173828125000001,0,0,0.008173828125000001,66.232529296875,0)" xlink:href="#am"/><use transform="matrix(0.008173828125000001,0,0,0.008173828125000001,76.50703125,0)" xlink:href="#aw"/><use transform="matrix(0.008173828125000001,0,0,0.008173828125000001,80.56125,0)" xlink:href="#aa"/><use transform="matrix(0.008173828125000001,0,0,0.008173828125000001,84.623642578125,0)" xlink:href="#al"/><use transform="matrix(0.008173828125000001,0,0,0.008173828125000001,93.62302734375,0)" xlink:href="#am"/><use transform="matrix(0.008173828125000001,0,0,0.008173828125000001,103.89752929687499,0)" xlink:href="#K"/><use transform="matrix(0.008173828125000001,0,0,0.008173828125000001,113.63255859374998,0)" xlink:href="#an"/><use transform="matrix(0.008173828125000001,0,0,0.008173828125000001,123.90706054687499,0)" xlink:href="#H"/></g><g id="r"><use transform="matrix(0.0087890625,0,0,0.0087890625,0,0)" xlink:href="#at"/><use transform="matrix(0.0087890625,0,0,0.0087890625,4.359375,0)" xlink:href="#Q"/><use transform="matrix(0.0087890625,0,0,0.0087890625,20.126953125,0)" xlink:href="#af"/><use transform="matrix(0.0087890625,0,0,0.0087890625,31.1484375,0)" xlink:href="#O"/><use transform="matrix(0.0087890625,0,0,0.0087890625,41.94140625,0)" xlink:href="#P"/><use transform="matrix(0.0087890625,0,0,0.0087890625,48.9990234375,0)" xlink:href="#ar"/><use transform="matrix(0.0087890625,0,0,0.0087890625,54.9755859375,0)" xlink:href="#R"/><use transform="matrix(0.0087890625,0,0,0.0087890625,65.0830078125,0)" xlink:href="#S"/><use transform="matrix(0.0087890625,0,0,0.0087890625,75.5419921875,0)" xlink:href="#T"/><use transform="matrix(0.0087890625,0,0,0.0087890625,85.6494140625,0)" xlink:href="#O"/></g><path fill="#fff" d="M524-1490L277 0H87l247-1490h190" id="ax"/><path fill="#fff" d="M-4 418l255-1536h174l-30 179h9c47-68 143-193 355-193 246 0 401 170 401 447 0 348-211 709-568 709-219 0-274-140-300-202h-17l-99 596H-4zm572-555c267 0 411-296 411-543 0-170-78-291-250-291-269 0-405 284-405 542 0 177 81 292 244 292" id="ay"/><g id="s"><use transform="matrix(0.008173828125000001,0,0,0.008173828125000001,0,0)" xlink:href="#ax"/><use transform="matrix(0.008173828125000001,0,0,0.008173828125000001,4.495605468750001,0)" xlink:href="#I"/><use transform="matrix(0.008173828125000001,0,0,0.008173828125000001,19.159453125000002,0)" xlink:href="#ay"/><use transform="matrix(0.008173828125000001,0,0,0.008173828125000001,29.417607421875005,0)" xlink:href="#H"/><use transform="matrix(0.008173828125000001,0,0,0.008173828125000001,39.46324218750001,0)" xlink:href="#ad"/><use transform="matrix(0.008173828125000001,0,0,0.008173828125000001,46.035000000000004,0)" xlink:href="#ac"/><use transform="matrix(0.008173828125000001,0,0,0.008173828125000001,51.3643359375,0)" xlink:href="#am"/><use transform="matrix(0.008173828125000001,0,0,0.008173828125000001,61.638837890625005,0)" xlink:href="#K"/><use transform="matrix(0.008173828125000001,0,0,0.008173828125000001,71.37386718750001,0)" xlink:href="#an"/><use transform="matrix(0.008173828125000001,0,0,0.008173828125000001,81.64836914062501,0)" xlink:href="#H"/></g><path fill="#333" d="M65 0l393-574-370-544h210c88 136 192 297 267 435 67-142 176-302 264-435h206L661-564 1053 0H844c-94-144-206-310-287-458C484-308 366-142 273 0H65" id="az"/><g id="t"><use transform="matrix(0.0087890625,0,0,0.0087890625,0,0)" xlink:href="#V"/><use transform="matrix(0.0087890625,0,0,0.0087890625,10.08984375,0)" xlink:href="#az"/><use transform="matrix(0.0087890625,0,0,0.0087890625,19.916015625,0)" xlink:href="#af"/><use transform="matrix(0.0087890625,0,0,0.0087890625,30.9375,0)" xlink:href="#O"/><use transform="matrix(0.0087890625,0,0,0.0087890625,41.73046875,0)" xlink:href="#P"/><use transform="matrix(0.0087890625,0,0,0.0087890625,48.7880859375,0)" xlink:href="#ar"/><use transform="matrix(0.0087890625,0,0,0.0087890625,54.7646484375,0)" xlink:href="#R"/><use transform="matrix(0.0087890625,0,0,0.0087890625,64.8720703125,0)" xlink:href="#S"/><use transform="matrix(0.0087890625,0,0,0.0087890625,75.3310546875,0)" xlink:href="#T"/><use transform="matrix(0.0087890625,0,0,0.0087890625,85.4384765625,0)" xlink:href="#O"/></g><path fill="#fff" d="M87 0l247-1490h908l-28 167H496l-80 487h669l-28 167H387l-83 502h727L1004 0H87" id="aA"/><path fill="#fff" d="M-28 0l489-573-281-545h202c65 135 144 295 195 434 91-140 226-300 336-434h214L662-564 960 0H756c-70-143-156-309-211-458C447-309 301-142 185 0H-28" id="aB"/><g id="u"><use transform="matrix(0.008173828125000001,0,0,0.008173828125000001,0,0)" xlink:href="#aA"/><use transform="matrix(0.008173828125000001,0,0,0.008173828125000001,10.070156250000002,0)" xlink:href="#aB"/><use transform="matrix(0.008173828125000001,0,0,0.008173828125000001,19.208496093750004,0)" xlink:href="#ay"/><use transform="matrix(0.008173828125000001,0,0,0.008173828125000001,29.466650390625006,0)" xlink:href="#H"/><use transform="matrix(0.008173828125000001,0,0,0.008173828125000001,39.51228515625001,0)" xlink:href="#ad"/><use transform="matrix(0.008173828125000001,0,0,0.008173828125000001,46.084042968750005,0)" xlink:href="#ac"/><use transform="matrix(0.008173828125000001,0,0,0.008173828125000001,51.41337890625,0)" xlink:href="#am"/><use transform="matrix(0.008173828125000001,0,0,0.008173828125000001,61.68788085937501,0)" xlink:href="#K"/><use transform="matrix(0.008173828125000001,0,0,0.008173828125000001,71.42291015625001,0)" xlink:href="#an"/><use transform="matrix(0.008173828125000001,0,0,0.008173828125000001,81.69741210937501,0)" xlink:href="#H"/></g></defs></g></svg>